<svg xmlns="http://www.w3.org/2000/svg" width="24" height="24" viewBox="0 0 24 24" fill="none" stroke="#10b981" stroke-width="2" stroke-linecap="round" stroke-linejoin="round" class="lucide lucide-bone"><path d="M17 10c.7-.7 1.69 0 2.5 0a2.5 2.5 0 1 0 0-5 .5.5 0 0 1-.5-.5 2.5 2.5 0 1 0-5 0c0 .81.7 1.8 0 2.5l-4.6 4.6a3.2 3.2 0 0 1-4.8 0 2.5 2.5 0 1 0-5 0c0 .81.7 1.8 0 2.5l4.6 4.6c.7.7 1.69 0 2.5 0a2.5 2.5 0 1 0 0-5 .5.5 0 0 1-.5-.5 2.5 2.5 0 1 0-5 0c0 .81.7 1.8 0 2.5l4.6 4.6a3.2 3.2 0 0 1 4.8 0 2.5 2.5 0 1 0 5 0c0-.81-.7-1.8 0-2.5z"/></svg>
